<?xml version="1.0" encoding="utf-8"?>
<!-- Generator: Adobe Illustrator 27.4.0, SVG Export Plug-In . SVG Version: 6.00 Build 0)  -->
<svg version="1.1" id="Layer_1" xmlns="http://www.w3.org/2000/svg" xmlns:xlink="http://www.w3.org/1999/xlink" x="0px" y="0px"
	 viewBox="0 0 518.9 484.6" style="enable-background:new 0 0 518.9 484.6;" xml:space="preserve">
<style type="text/css">
	.st0{fill:#FFFFFF;}
</style>
<g>
	<path class="st0" d="M263.8,38C325,39,381.3,61.4,426.4,109c58.5,61.7,72.1,154.7,32.4,229.7c-31,58.5-80,95.6-144.7,110.4
		c-74.6,17.2-142.4,1.6-201.4-47.2c-41-34-65.7-78.1-71.8-131.3c-7.2-62.7,11.9-117.3,55.1-163C138.4,62.8,198.4,37.7,263.8,38z
		 M219.6,317.6c0.8,1.7,1.6,3.5,2.5,5.2c6.2,12.1,12.5,24.2,18.8,36.4c2.5,4.8,1.1,8.5-3,11.8c-3.6,2.8-6.9,6-11.2,9.9
		c7.3,6.5,13.9,12.3,20.8,18.4c-3.8-7.9-12.4-11.4-17.1-18.9c3.6-3.2,7.2-6.5,10.8-9.6c3-2.6,4.3-5.6,2.4-9.3
		c-6.5-12.9-12.9-25.8-19.6-38.6c-1-2-3-3.4-4.5-5.1c-0.5-1.3-1-2.6-1.8-4.5c8.6,2.3,16.7,4.5,24.9,6.5c4,1,6.2,3,7.3,7
		c7.7,27.9,15.6,55.8,23.4,83.7c0.4,1.3,0.8,2.6,1.2,3.9c1.8-4.4,2.5-8.6,2.9-12.9c1.1-12.5,5.5-23.9,12-34.6
		c1.7-2.7,3.3-3.3,6.5-2.3c6.5,2,13.1,3.8,19.8,4.9c6.2,1.1,12.6,1.1,19,1.7c0.1-0.5,0.2-1,0.3-1.4c-28.8-0.9-53.9-8.6-67.9-36.6
		c0.6,2.3,1.2,4.6,1.9,7.5c-5.9-0.6-10-2.5-12.6-7.1c-2.2-4-2.5-8.6,0.7-11.7c4.4-4.3,3-7.8,0.1-11.6c-5-6.6-5.5-13.5-2.6-21.2
		c1.7-4.5,3.1-9.3,3.3-14c0.3-5.1,1.9-9.3,4.9-13.2c9.5-12.4,19.1-24.7,34.3-30.4c25.1-9.4,49.6-9.1,72.8,5.7
		c13.5,8.6,22.7,21.5,26.5,36.4c3.2,12.7,5.4,26.5,0.8,40c-0.5,1.6-0.4,4.1,0.5,5.6c5.3,9.4,3.1,16.1-6.9,20.7
		c-1.8,0.8-3.5,2-4.9,3.3c-5.8,5.5-11.3,11.2-17.2,16.6c-2,1.9-2.5,3.1-1.1,5.8c3.7,7.2,6.8,14.7,10.1,22c0.4,0.9,0.5,2,0.8,2.9
		c0.3,0.8,0.8,1.4,1.2,2.1c-2.2-7,1.9-10.7,6.4-14.5c3.9-3.3,7.6-7,11.2-10.7c40.9-41.6,56.9-91.8,49.4-149
		c-5.3-40.2-24.3-74.2-53.8-101.9c-77.9-73.2-200.9-70.2-274.6,7.3c-40.1,42.1-54.9,92.9-45.9,150.1c5.7,36.2,22.9,67.2,48.2,93.7
		c2.4,2.6,4.1,5.9,6.1,8.8c0.1-0.3,0.7-1.4,1.1-2.6c4.8-15.6,9.7-31.1,14.4-46.8c1-3.4,2.6-5.2,6.1-6.2c9.3-2.6,18.4-5.7,27.6-8.7
		c2.4-0.8,5.2-0.7,5.5-4.6c0.3-4.2-2.8-4.5-5.2-5.4c-8.8-3.4-15.7-8.9-19.3-17.7c-3.1-7.7-6.1-15.5-8.4-23.4
		c-1.7-5.8-2.4-11.9-3.5-17.9c0.7,18.7,4.7,36.4,16.3,52.2c-3.4,1.4-6.4,2.7-10.1,4.3c-0.5-3.7-1-6.8-1.3-9.8
		c-0.4-3.8-1.8-5.6-6.1-4.8c-4.3,0.8-8.8,0.6-14.1,0.8c1.3-5.2,2.3-9.3,3.3-13.5c1.8-7.1,1.8-7.1-5.1-9.4
		c-5.4-1.8-10.8-3.6-17.2-5.7c6.8-6.7,12.8-12.5,18.7-18.3c-7.2-11.4-18.6-14.8-31.7-17.2c3.1-2.2,4.8-3.5,6.6-4.8
		c5.9-4.1,11.7-8.3,17.7-12.2c3.4-2.3,3.7-5,1.4-8c-4.1-5.2-8.4-10.3-12.8-15.3c-2.3-2.7-4.9-5.1-8.3-8.6c12.6-1,23.8-2.1,35.1-2.7
		c4.7-0.2,6.1-2.2,4.9-6.2c-1.9-6.4-4.1-12.6-6.2-18.9c-0.6-1.9-1.5-3.8-2.6-6.4c2.6,0.5,4.3,0.6,5.8,1.1c7.1,2.4,14.2,4.7,21.1,7.5
		c3.5,1.4,5.4,0.7,6.3-2.8c1.9-7.6,3.8-15.2,5.5-22.8c0.5-2.3,0.8-4.7,1.2-7.1c0.5-0.2,0.9-0.3,1.4-0.5c8,9,15.9,18,24.2,27.3
		c9.7-10.7,20.6-18.9,33.5-24.4c0.7,10.3,1.1,20.3,2.3,30.2c1,8.6,1.5,8.7,9.7,6.1c7.7-2.5,15.4-5.1,24.4-8.1
		c-6.6,11.2-12.5,21.3-18.9,32.1c11.2,1.8,21.2,3.3,32.4,5.1c-8.9,8.2-16.7,15.5-25.1,23.3c9.4,3.9,17.7,7.3,26.1,10.7
		c0.1,0.6,0.2,1.2,0.4,1.9c-11.4,5.1-22.9,10.2-35.5,15.8c7.2,4.7,14,9,21.7,14.1c-6.6,2.7-12.2,5.3-17.9,7.4
		c-3.1,1.1-3.8,2.6-2.6,5.6c1.3,3.3,2.3,6.8,3.6,10.6c-3.7,0.5-6.7,0.8-9.6,1.3c-4.4,0.7-5.1,2.2-2.7,6c1.5,2.3,3.2,4.4,5.3,7.2
		c-3,1.1-5.4,1.7-7.6,2.7c-3,1.4-5.9,2.8-8.7,4.6c-4.6,3.1-8.9,6.7-13.6,9.6c-3.6,2.2-5.1,5.1-2.8,8.5
		C215.2,313.7,217.6,315.6,219.6,317.6z M172,383.7c2.3-1.4,2.5-3.3-0.3-5.6c-3.2-2.7-6.1-5.7-9.5-8.1c-3.9-2.7-4.2-5.8-2.5-9.9
		c4.5-11.1,8.8-22.2,13.2-33.4c0.6-1.5,1.3-2.9,1.9-4.3c-0.5-0.2-0.9-0.4-1.4-0.6c-4.2,9.9-8.7,19.7-12.5,29.7
		c-6,16.2-7.2,12.5,5.5,24.1c0.7,0.7,1.6,1.2,2.2,2C169.7,379.7,170.8,381.6,172,383.7z"/>
</g>
</svg>
